<?xml version="1.0" encoding="UTF-8" standalone="no"?>
<!-- Created with Inkscape (http://www.inkscape.org/) -->

<svg
   width="210mm"
   height="297mm"
   viewBox="0 0 210 297"
   version="1.1"
   id="svg1"
   xml:space="preserve"
   inkscape:export-filename="C:\Users\genia\Downloads\ezze.svg"
   inkscape:export-xdpi="300"
   inkscape:export-ydpi="300"
   sodipodi:docname="Zum.svg"
   xmlns:inkscape="http://www.inkscape.org/namespaces/inkscape"
   xmlns:sodipodi="http://sodipodi.sourceforge.net/DTD/sodipodi-0.dtd"
   xmlns="http://www.w3.org/2000/svg"
   xmlns:svg="http://www.w3.org/2000/svg"><sodipodi:namedview
     id="namedview1"
     pagecolor="#505050"
     bordercolor="#eeeeee"
     borderopacity="1"
     inkscape:showpageshadow="0"
     inkscape:pageopacity="0"
     inkscape:pagecheckerboard="0"
     inkscape:deskcolor="#505050"
     inkscape:document-units="mm"
     showguides="true"><inkscape:page
       x="0"
       y="0"
       width="210"
       height="297"
       id="page1"
       margin="0"
       bleed="0" /></sodipodi:namedview><defs
     id="defs1" /><g
     inkscape:label="Camada 1"
     inkscape:groupmode="layer"
     id="layer1"><g
       transform="matrix(0.03527778,0,0,-0.03527778,2.0410531,266.07838)"
       fill="#000000"
       stroke="none"
       id="g5"><g
         id="g16"><path
           style="fill:#fbba30;fill-opacity:1;stroke-width:0.252628"
           d="m 5370.3729,2251.5951 c 172.3327,118.8426 280.299,298.6101 301.7,502.3403 5.0569,48.1377 2.1324,130.3942 -6.4174,180.5138 -59.9624,351.5076 -390.0812,600.7758 -754.1432,575.551 -26.4767,-1.8346 -56.5817,-8.2504 -68.1106,-10.3145 -11.529,-2.064 -22.2998,-6.2823 -23.1281,-5.4309 -2.8057,2.8844 72.88,47.5779 112.9089,61.0909 120.5206,40.6858 254.1899,48.3047 382.5679,21.8056 272.578,-56.264 490.6069,-269.3253 547.6023,-535.1253 23.0264,-107.3835 19.1163,-226.0891 -10.8485,-329.3634 -66.0388,-227.6045 -252.1111,-410.7656 -485.9634,-478.3603 -16.006,-4.6266 -30.0782,-8.4119 -31.2719,-8.4119 -1.1935,0 14.6034,11.5671 35.104,25.7047 z"
           id="path21"
           sodipodi:nodetypes="sssssssssssss" /><path
           style="fill:#010059;fill-opacity:1;stroke-width:0.252628"
           d="m 2379.444,1551.218 c -25.7757,4.7534 -55.6537,15.7743 -79.1357,29.1904 l -20.9208,11.9527 27.6046,28.3791 27.6047,28.379 17.9314,-10.1349 c 47.1726,-26.6631 114.5163,-25.6948 138.1495,1.986 10.0016,11.7144 15.9852,27.8237 15.9852,43.0339 v 15.1736 l -22.1535,-10.6999 c -19.2883,-9.3159 -26.4309,-10.867 -55.2237,-11.9929 -38.4198,-1.5024 -61.3323,2.62 -88.8068,15.978 -45.5162,22.1297 -70.6244,59.6518 -76.6054,114.4815 -5.0237,46.0519 6.0097,91.1267 29.9164,122.2193 41.4258,53.8779 130.9078,72.479 194.0017,40.3285 l 18.8713,-9.6164 v 9.853 9.8529 h 41.1713 41.1712 l -0.9665,-164.4867 c -0.9563,-162.7668 -1.0455,-164.6883 -8.5273,-183.7249 -14.0243,-35.683 -43.8871,-62.0895 -85.6504,-75.7371 -18.4593,-6.032 -90.5613,-8.8143 -114.4172,-4.4151 z m 92.7578,204.763 c 27.279,14.5503 38.8003,35.7715 38.9629,71.7668 0.2524,55.7664 -28.7141,85.5128 -83.2701,85.5128 -41.3755,0 -69.2574,-18.247 -79.9654,-52.3329 -15.2816,-48.6442 3.3212,-93.1515 45.6939,-109.323 18.6689,-7.1248 61.4873,-4.7402 78.5787,4.3763 z m -994.4511,-98.413 c -25.6045,5.1699 -75.7182,29.2386 -93.5376,44.9241 l -11.4872,10.1115 25.1991,26.0914 c 24.863,25.7433 25.3006,26.0156 32.8202,20.4174 24.7185,-18.4028 32.8484,-23.1969 49.6003,-29.2499 25.3226,-9.1497 70.5158,-9.2038 90.0061,-0.1067 14.0739,6.5683 20.2894,17.7605 16.0982,28.9886 -2.7907,7.477 -24.6537,16.5506 -64.392,26.7244 -69.8829,17.8916 -100.151,30.7463 -119.6866,50.8302 -23.215,23.8661 -28.1234,57.3148 -12.9918,88.532 15.367,31.7025 50.1207,51.3182 102.5294,57.8691 61.5257,7.6908 119.0859,-7.4141 159.7886,-41.9317 l 9.8463,-8.3499 -24.8285,-25.5342 -24.8283,-25.5342 -17.3583,12.0089 c -24.7161,17.0994 -47.2603,23.0106 -82.3675,21.5971 -32.6108,-1.3129 -46.7191,-8.305 -48.5573,-24.0658 -1.4927,-12.7989 6.777,-16.8525 69.941,-34.2845 71.88,-19.8372 94.5455,-29.6331 113.3206,-48.9759 22.122,-22.791 27.5557,-46.8332 18.0341,-79.7954 -16.4288,-56.8745 -99.3258,-87.9983 -187.1488,-70.2657 z m 449.0658,-0.2723 c -80.9658,15.1019 -126.9084,73.1939 -126.7985,160.3298 0.063,49.7476 11.1153,82.4026 38.4818,113.6947 29.3587,33.57 65.4259,50.2063 116.4916,53.7334 50.5789,3.4932 97.5132,-11.629 128.4629,-41.3912 32.4055,-31.1618 46.1822,-66.1848 46.9234,-119.2886 l 0.4943,-35.428 -125.5371,-0.8836 c -69.0455,-0.4859 -125.5371,-2.198 -125.5371,-3.8045 12.4733,-24.939 28.692,-44.7402 55.6543,-55.9977 33.1548,-11.3211 76.7361,-4.3826 109.2534,17.3944 l 9.0121,6.0353 24.6057,-25.1272 24.6057,-25.1272 -9.0026,-7.7214 c -16.4443,-14.104 -56.1998,-31.7858 -82.1724,-36.547 -30.9139,-5.6672 -54.0515,-5.6321 -84.9375,0.1288 z m 112.9422,218.4003 c -16.6783,25.1145 -29.6135,34.7239 -53.646,39.8529 -32.5416,6.9452 -63.2525,-2.7194 -83.3945,-26.2439 -7.1908,-8.3985 -13.0745,-16.8346 -13.0745,-18.7468 0,-1.9124 -2.4441,-6.2536 -5.4316,-9.6473 -5.2491,-5.963 -2.4941,-6.1704 82.0156,-6.1704 h 87.4472 z m 815.4535,-219.9537 c -29.3504,4.3957 -54.6334,16.0529 -71.1718,32.8149 -31.8702,32.3016 -34.508,46.2668 -34.508,182.6974 v 108.3272 h 41.0252 41.0252 v -106.4181 c 0,-99.1565 0.4406,-107.3059 6.4542,-119.4246 9.4829,-19.1093 27.7952,-27.214 61.4884,-27.214 34.7317,0 57.2562,10.9529 68.8414,33.4755 7.494,14.569 7.6248,16.5786 7.6248,117.2022 v 102.379 h 41.0252 41.0252 v -160.2693 -160.2692 h -41.0252 -41.0252 v 13.908 c 0,13.7941 -0.061,13.8631 -7.3845,8.4385 -33.1852,-24.5788 -67.9814,-32.4489 -113.3949,-25.6475 z m 811.6441,-1.5651 c -3.6104,0.8572 -14.6871,3.2447 -24.6151,5.3057 -53.3093,11.0665 -95.7996,53.1012 -110.4027,109.2183 -5.7042,21.9206 -5.6351,79.5451 0.122,101.7748 17.5275,67.6762 67.6573,108.1271 141.8398,114.4532 83.3465,7.1074 152.2158,-32.438 175.079,-100.532 9.8696,-29.3953 12.3224,-78.1395 5.4415,-108.1344 -17.3677,-75.7069 -70.28,-118.471 -151.2705,-122.2583 -16.2967,-0.762 -32.5837,-0.6844 -36.194,0.1727 z m 63.9992,77.9624 c 14.763,6.2534 28.288,19.538 37.2234,36.5616 9.7987,18.6686 10.4064,81.3132 0.9656,99.5358 -18.5984,35.8985 -51.0234,50.637 -95.369,43.3488 -27.4798,-4.5162 -43.9175,-16.7122 -55.975,-41.5305 -8.7041,-17.9163 -9.7715,-23.4868 -9.7715,-50.9999 0,-27.6455 1.0296,-32.9559 9.8102,-50.6066 11.6067,-23.3319 28.5025,-36.6919 52.3992,-41.4336 19.3157,-3.8327 44.6116,-1.6977 60.7171,5.1244 z m 367.5795,-74.8335 c -11.7368,2.4072 -30.606,8.2477 -41.9313,12.9786 -20.1352,8.4113 -66.3688,37.7283 -66.3688,42.0849 0,1.2083 11.3155,13.8983 25.1454,28.2 l 25.1452,26.0033 13.6478,-11.4971 c 24.8321,-20.9189 48.645,-29.7948 83.7525,-31.2176 35.6274,-1.4438 53.5589,3.1698 62.822,16.1632 7.794,10.9332 4.8421,22.3696 -7.4633,28.9114 -5.1958,2.7623 -34.733,11.8645 -65.6379,20.227 -98.9703,26.7805 -128.2221,49.5421 -128.2221,99.7734 0,59.3307 52.3977,94.8588 140.1422,95.0232 53.1337,0.1003 96.3469,-13.7248 125.6971,-40.2118 l 12.1476,-10.9628 -24.6149,-25.4229 -24.6152,-25.4228 -17.0798,11.8226 c -22.7687,15.7605 -43.1643,21.6501 -74.8167,21.6048 -41.6707,-0.06 -67.5305,-16.5698 -52.5709,-33.5637 7.4304,-8.4406 15.2417,-11.3318 73.094,-27.0538 63.3401,-17.2134 81.8736,-24.3882 100.2427,-38.8075 27.7493,-21.7826 37.4555,-62.8366 22.8384,-96.5992 -7.7826,-17.9758 -32.1709,-41.6368 -52.3982,-50.8353 -32.5152,-14.7865 -87.9779,-19.6026 -128.9558,-11.1979 z m -879.574,162.0064 v 160.2693 h 41.0252 41.0252 v -20.2444 c 0,-11.1346 -0.379,-20.2446 0.975,-20.2445 1.3539,0 8.0819,5.3263 13.1343,11.8362 14.6788,18.9128 38.5379,29.5334 70.4026,31.3389 l 27.0765,1.5342 v -37.5381 -37.5382 h -20.7372 c -45.8408,0 -75.4025,-18.5994 -85.5842,-53.8472 -4.2522,-14.7195 -5.267,-35.3468 -5.267,-107.0345 v -88.8009 h -41.0252 -41.0252 z m -1217.6286,314.0228 c -172.3363,25.0628 -326.0269,105.5401 -436.6677,228.6531 -70.8949,78.8863 -115.0059,154.4544 -146.0699,250.2353 -40.488,124.8394 -44.2696,248.6963 -11.5381,377.8981 56.5248,223.1217 232.5141,409.6046 458.0718,485.3856 80.8742,27.1714 143.4518,37.1786 233.0235,37.2648 70.9303,0.068 111.6794,-4.6485 177.2287,-20.514 225.7611,-54.643 417.6636,-224.2632 495.5711,-438.0287 112.3312,-308.2187 -8.6151,-646.2038 -293.727,-820.8212 -79.6878,-48.8051 -163.5654,-80.2309 -259.2793,-97.1425 -44.576,-7.8759 -170.8598,-9.5844 -216.6131,-2.9305 z m 144.4089,400.9829 c 57.1847,10.5103 108.8199,37.4892 149.104,77.9055 38.8106,38.9377 62.6521,80.3738 78.0662,135.6772 10.3528,37.1436 10.2491,108.5106 -0.2143,147.7464 -21.5912,80.9635 -75.8616,148.4476 -149.2444,185.582 -42.9105,21.7144 -73.8166,29.1835 -122.0188,29.4885 -105.1793,0.6655 -196.1567,-52.8189 -249.0029,-146.3853 -40.0437,-70.8987 -46.7776,-170.666 -16.8232,-249.2447 48.3629,-126.8691 181.4221,-204.4264 310.1334,-180.7696 z m 1391.5752,-402.8477 c -49.7863,5.0309 -101.8832,25.181 -142.42,55.0849 -33.1937,24.4871 -72.4364,69.7598 -88.2025,101.7557 -3.7377,7.585 -481.3739,1197.7165 -490.7482,1222.8024 -1.4981,4.0091 4.5439,4.3887 38.4786,2.417 235.942,-13.7082 459.2919,-156.6807 552.6313,-353.7548 8.1577,-17.224 31.7684,-79.9031 52.4682,-139.2871 20.6997,-59.384 55.1634,-158.3663 76.586,-219.9607 21.4225,-61.5944 39.9537,-110.9405 41.1807,-109.6579 1.2268,1.2825 37.2119,100.2648 79.9666,219.9606 42.7549,119.6959 84.0346,231.5042 91.7323,248.463 69.8119,153.7984 235.0938,288.6405 411.2013,335.4703 60.365,16.052 157.9327,26.0639 154.0821,15.8111 -0.871,-2.3196 -91.9651,-235.7644 -202.4311,-518.7663 -201.8977,-517.2401 -268.8007,-681.4924 -294.1054,-722.0551 -36.0672,-57.8151 -93.7813,-103.8357 -155.7033,-124.156 -41.0299,-13.4645 -83.5786,-18.2842 -124.7166,-14.1271 z m 1347.2682,1.643 c -203.1877,29.6463 -372.6151,130.9795 -490.2334,293.2047 -105.8549,146.0005 -149.4293,337.3361 -116.8737,513.1923 47.5882,257.0567 234.7202,464.0094 491.0925,543.1086 99.8092,30.7943 216.5076,39.3472 320.6624,23.5015 258.7086,-39.3591 474.8898,-212.5117 563.9259,-451.6826 41.2999,-110.942 52.0344,-248.2999 28.5848,-365.7798 -18.7847,-94.1088 -58.6745,-186.0319 -114.1763,-263.1094 -33.4241,-46.4175 -105.591,-120.1719 -149.6545,-152.9461 -94.5287,-70.3104 -199.7849,-115.3868 -318.3556,-136.3369 -43.6859,-7.7188 -170.8905,-9.5841 -214.9721,-3.1523 z m 167.2058,406.4169 c 95.2556,25.4247 171.3319,101.569 200.7292,200.9087 8.0814,27.3094 8.9862,35.4625 8.9862,80.9781 0,45.2834 -0.9275,53.7398 -8.8104,80.3286 -30.1893,101.8268 -103.8459,174.4712 -204.5727,201.7615 -36.9006,9.9976 -94.2584,10.0192 -133.9998,0.051 -94.7084,-23.7571 -170.5573,-95.8458 -201.9153,-191.905 -9.3206,-28.5513 -10.9389,-38.6811 -12.304,-77.0134 -1.7551,-49.2891 2.9543,-81.8772 17.2524,-119.3852 30.0562,-78.8459 97.1779,-144.1671 175.1138,-170.416 49.1309,-16.5475 109.8406,-18.5673 159.5206,-5.3073 z M -33.61852,2824.5562 v 690.8084 l 104.204118,-1.4078 c 114.998232,-1.5535 122.509322,-2.653 167.653602,-24.5421 31.28119,-15.1674 61.04925,-45.2409 76.87147,-77.6605 11.9553,-24.4958 22.13886,-63.2853 22.13886,-84.3271 0,-6.7474 1.22111,-11.762 2.71331,-11.1433 1.49246,0.6185 10.81516,10.9938 20.71717,23.0563 25.03059,30.4916 69.8831,69.4284 109.15051,94.7541 157.91481,101.8487 358.67564,107.0006 511.94752,13.1375 139.53486,-85.4504 221.96386,-197.198 251.85836,-341.4399 8.6799,-41.881 11.6479,-153.2995 14.1368,-530.683 1.0647,-161.4503 2.8493,-326.5698 3.9652,-366.9324 l 2.0296,-73.3864 h -24.4617 c -51.0183,0 -125.7336,15.4712 -175.2586,36.2905 -52.2253,21.9544 -90.56532,49.0055 -131.33692,92.6657 -50.31361,53.8779 -82.52332,115.2107 -101.24932,192.7958 -14.91851,61.8103 -15.66473,73.7776 -17.91539,287.2712 l -2.16992,205.8195 -8.81268,26.9927 c -21.12075,64.692 -67.87912,109.5482 -133.67627,128.2381 -33.06612,9.3926 -83.09189,8.1029 -116.76897,-3.0104 -64.67944,-21.3439 -109.31918,-71.1406 -124.66153,-139.0629 -4.48309,-19.847 -5.34443,-53.8777 -5.84099,-230.7862 -0.56585,-201.6329 -0.79308,-208.5293 -8.02809,-243.6369 -23.3834,-113.4679 -71.56193,-199.7565 -144.51739,-258.8334 -73.10967,-59.202 -151.38364,-88.4098 -250.843058,-93.6017 l -41.845692,-2.1844 z"
           id="path16"
           sodipodi:nodetypes="sscccssscsssssscccccsssssssssssscsssssssssscccssssssssssssscsssscccssssssssscsssscccssssscccccccssssssssssssssssssssssssscsssssssscccssssssssccccsssscccsssccccsssssssssssssssssssssssssssssssssssssssssssssssssssssssssssccssssssssssscssssscsssssssscc" /></g></g></g></svg>
